<svg width="18" height="19" viewBox="0 0 18 19" fill="none" xmlns="http://www.w3.org/2000/svg">
<path d="M8.99999 0C7.14348 0 5.363 0.737498 4.05024 2.05025C2.73749 3.36301 1.99999 5.14348 1.99999 7V10.528C2.00014 10.6831 1.96419 10.8362 1.89499 10.975L0.177991 14.408C0.0941178 14.5757 0.0545135 14.7621 0.0629399 14.9494C0.0713663 15.1368 0.127544 15.3188 0.226136 15.4783C0.324729 15.6379 0.462464 15.7695 0.626258 15.8608C0.790053 15.9521 0.974469 16 1.16199 16H16.838C17.0255 16 17.2099 15.9521 17.3737 15.8608C17.5375 15.7695 17.6753 15.6379 17.7738 15.4783C17.8724 15.3188 17.9286 15.1368 17.937 14.9494C17.9455 14.7621 17.9059 14.5757 17.822 14.408L16.106 10.975C16.0365 10.8362 16.0002 10.6832 16 10.528V7C16 5.14348 15.2625 3.36301 13.9497 2.05025C12.637 0.737498 10.8565 0 8.99999 0ZM8.99999 19C8.37934 19.0003 7.77386 18.8081 7.26701 18.4499C6.76016 18.0917 6.37688 17.5852 6.16999 17H11.83C11.6231 17.5852 11.2398 18.0917 10.733 18.4499C10.2261 18.8081 9.62064 19.0003 8.99999 19Z" fill="#658864"/>
</svg>
