<svg width="54" height="54" viewBox="0 0 54 54" fill="none" xmlns="http://www.w3.org/2000/svg">
<path d="M16.6781 27C13.6406 27.1004 11.1562 28.3862 9.225 30.8571H5.45625C3.91875 30.8571 2.625 30.4503 1.575 29.6367C0.525 28.8231 0 27.6328 0 26.0658C0 18.9743 1.1625 15.4286 3.4875 15.4286C3.6 15.4286 4.00781 15.6395 4.71094 16.0614C5.41406 16.4833 6.32812 16.9102 7.45312 17.3421C8.57812 17.774 9.69375 17.99 10.8 17.99C12.0563 17.99 13.3031 17.7589 14.5406 17.2969C14.4469 18.0402 14.4 18.7031 14.4 19.2857C14.4 22.0781 15.1594 24.6496 16.6781 27ZM46.8 46.1953C46.8 48.606 46.1156 50.5095 44.7469 51.9057C43.3781 53.3019 41.5594 54 39.2906 54H14.7094C12.4406 54 10.6219 53.3019 9.25313 51.9057C7.88438 50.5095 7.2 48.606 7.2 46.1953C7.2 45.1306 7.23281 44.091 7.29844 43.0765C7.36406 42.0619 7.49531 40.9671 7.69219 39.7919C7.88906 38.6166 8.1375 37.5268 8.4375 36.5223C8.7375 35.5179 9.14062 34.5385 9.64687 33.5843C10.1531 32.63 10.7344 31.8164 11.3906 31.1434C12.0469 30.4704 12.8484 29.933 13.7953 29.5312C14.7422 29.1295 15.7875 28.9286 16.9312 28.9286C17.1187 28.9286 17.5219 29.1445 18.1406 29.5765C18.7594 30.0084 19.4438 30.4905 20.1938 31.0229C20.9438 31.5552 21.9469 32.0374 23.2031 32.4693C24.4594 32.9012 25.725 33.1172 27 33.1172C28.275 33.1172 29.5406 32.9012 30.7969 32.4693C32.0531 32.0374 33.0563 31.5552 33.8063 31.0229C34.5563 30.4905 35.2406 30.0084 35.8594 29.5765C36.4781 29.1445 36.8813 28.9286 37.0688 28.9286C38.2125 28.9286 39.2578 29.1295 40.2047 29.5312C41.1516 29.933 41.9531 30.4704 42.6094 31.1434C43.2656 31.8164 43.8469 32.63 44.3531 33.5843C44.8594 34.5385 45.2625 35.5179 45.5625 36.5223C45.8625 37.5268 46.1109 38.6166 46.3078 39.7919C46.5047 40.9671 46.6359 42.0619 46.7016 43.0765C46.7672 44.091 46.8 45.1306 46.8 46.1953ZM18 7.71429C18 9.84375 17.2969 11.6618 15.8906 13.1685C14.4844 14.6752 12.7875 15.4286 10.8 15.4286C8.8125 15.4286 7.11563 14.6752 5.70938 13.1685C4.30313 11.6618 3.6 9.84375 3.6 7.71429C3.6 5.58482 4.30313 3.76674 5.70938 2.26004C7.11563 0.753348 8.8125 0 10.8 0C12.7875 0 14.4844 0.753348 15.8906 2.26004C17.2969 3.76674 18 5.58482 18 7.71429ZM37.8 19.2857C37.8 22.4799 36.7453 25.207 34.6359 27.4671C32.5266 29.7271 29.9813 30.8571 27 30.8571C24.0187 30.8571 21.4734 29.7271 19.3641 27.4671C17.2547 25.207 16.2 22.4799 16.2 19.2857C16.2 16.0915 17.2547 13.3644 19.3641 11.1044C21.4734 8.84431 24.0187 7.71429 27 7.71429C29.9813 7.71429 32.5266 8.84431 34.6359 11.1044C36.7453 13.3644 37.8 16.0915 37.8 19.2857ZM54 26.0658C54 27.6328 53.475 28.8231 52.425 29.6367C51.375 30.4503 50.0813 30.8571 48.5438 30.8571H44.775C42.8438 28.3862 40.3594 27.1004 37.3219 27C38.8406 24.6496 39.6 22.0781 39.6 19.2857C39.6 18.7031 39.5531 18.0402 39.4594 17.2969C40.6969 17.7589 41.9438 17.99 43.2 17.99C44.3063 17.99 45.4219 17.774 46.5469 17.3421C47.6719 16.9102 48.5859 16.4833 49.2891 16.0614C49.9922 15.6395 50.4 15.4286 50.5125 15.4286C52.8375 15.4286 54 18.9743 54 26.0658ZM50.4 7.71429C50.4 9.84375 49.6969 11.6618 48.2906 13.1685C46.8844 14.6752 45.1875 15.4286 43.2 15.4286C41.2125 15.4286 39.5156 14.6752 38.1094 13.1685C36.7031 11.6618 36 9.84375 36 7.71429C36 5.58482 36.7031 3.76674 38.1094 2.26004C39.5156 0.753348 41.2125 0 43.2 0C45.1875 0 46.8844 0.753348 48.2906 2.26004C49.6969 3.76674 50.4 5.58482 50.4 7.71429Z" fill="#658864"/>
</svg>
