<svg width="22" height="18" viewBox="0 0 22 18" fill="none" xmlns="http://www.w3.org/2000/svg">
<path d="M2.2 18C1.595 18 1.07727 17.7799 0.6468 17.3396C0.216333 16.8994 0.000733333 16.3695 0 15.75V2.25C0 1.63125 0.2156 1.10175 0.6468 0.6615C1.078 0.22125 1.59573 0.00075 2.2 0H19.8C20.405 0 20.9231 0.2205 21.3543 0.6615C21.7855 1.1025 22.0007 1.632 22 2.25V15.75C22 16.3687 21.7848 16.8986 21.3543 17.3396C20.9238 17.7806 20.4057 18.0007 19.8 18H2.2ZM2.2 15.75H19.8V2.25H2.2V15.75ZM8.8 11.25H5.5C5.18833 11.25 4.92727 11.358 4.7168 11.574C4.50633 11.79 4.40073 12.057 4.4 12.375C4.39927 12.693 4.50487 12.9604 4.7168 13.1771C4.92873 13.3939 5.1898 13.5015 5.5 13.5H6.6C6.6 13.8187 6.7056 14.0861 6.9168 14.3021C7.128 14.5181 7.38907 14.6257 7.7 14.625C8.01093 14.6242 8.27237 14.5162 8.4843 14.301C8.69623 14.0857 8.80147 13.8187 8.8 13.5H9.9C10.2117 13.5 10.4731 13.392 10.6843 13.176C10.8955 12.96 11.0007 12.693 11 12.375V9C11 8.68125 10.8944 8.41425 10.6832 8.199C10.472 7.98375 10.2109 7.87575 9.9 7.875H6.6V6.75H9.9C10.2117 6.75 10.4731 6.642 10.6843 6.426C10.8955 6.21 11.0007 5.943 11 5.625C10.9993 5.307 10.8937 5.04 10.6832 4.824C10.4727 4.608 10.2117 4.5 9.9 4.5H8.8C8.8 4.18125 8.6944 3.91425 8.4832 3.699C8.272 3.48375 8.01093 3.37575 7.7 3.375C7.38907 3.37425 7.128 3.48225 6.9168 3.699C6.7056 3.91575 6.6 4.18275 6.6 4.5H5.5C5.18833 4.5 4.92727 4.608 4.7168 4.824C4.50633 5.04 4.40073 5.307 4.4 5.625V9C4.4 9.31875 4.5056 9.58612 4.7168 9.80212C4.928 10.0181 5.18907 10.1257 5.5 10.125H8.8V11.25ZM15.5925 13.5844L17.1325 12.0094C17.2242 11.9156 17.2473 11.8125 17.2018 11.7C17.1563 11.5875 17.0691 11.5312 16.94 11.5312H13.86C13.7317 11.5312 13.6448 11.5875 13.5993 11.7C13.5538 11.8125 13.5766 11.9156 13.6675 12.0094L15.2075 13.5844C15.2625 13.6406 15.3267 13.6687 15.4 13.6687C15.4733 13.6687 15.5375 13.6406 15.5925 13.5844ZM13.86 6.75H16.94C17.0683 6.75 17.1556 6.69375 17.2018 6.58125C17.248 6.46875 17.2249 6.36562 17.1325 6.27187L15.5925 4.69687C15.5375 4.64062 15.4733 4.6125 15.4 4.6125C15.3267 4.6125 15.2625 4.64062 15.2075 4.69687L13.6675 6.27187C13.5758 6.36562 13.5531 6.46875 13.5993 6.58125C13.6455 6.69375 13.7324 6.75 13.86 6.75Z" fill="#FDF6FD"/>
</svg>
