<svg width="32" height="32" viewBox="0 0 32 32" fill="none" xmlns="http://www.w3.org/2000/svg">
<path d="M31.9999 4.0041V10.3713C32.0025 10.8955 31.9008 11.415 31.7008 11.8995C31.5008 12.3841 31.2064 12.8241 30.8348 13.1938C30.0818 13.9353 29.069 14.3534 28.0123 14.359H3.98771C3.46344 14.3611 2.94392 14.2595 2.45913 14.0598C1.97434 13.8602 1.53388 13.5666 1.16316 13.1958C0.792435 12.8251 0.498787 12.3846 0.299156 11.8999C0.0995255 11.4151 -0.0021369 10.8955 3.40494e-05 10.3713V4.0041C2.51546e-05 2.94498 0.41963 1.929 1.167 1.17856C1.91436 0.428115 2.92861 0.00434064 3.98771 0H28.0123C29.0724 0.00464389 30.0875 0.429552 30.8348 1.18154C31.2066 1.5512 31.501 1.99114 31.701 2.47573C31.9011 2.96031 32.0027 3.47986 31.9999 4.0041ZM14.359 21.6287V28.0123C14.3611 28.5366 14.2595 29.0561 14.0598 29.5409C13.8602 30.0257 13.5666 30.4661 13.1958 30.8368C12.8251 31.2076 12.3847 31.5012 11.8999 31.7008C11.4151 31.9005 10.8956 32.0021 10.3713 32H3.98771C3.46344 32.0021 2.94392 31.9005 2.45913 31.7008C1.97434 31.5012 1.53388 31.2076 1.16316 30.8368C0.792435 30.4661 0.498787 30.0257 0.299156 29.5409C0.0995255 29.0561 -0.0021369 28.5366 3.40494e-05 28.0123V21.6451C2.51546e-05 20.586 0.41963 19.57 1.167 18.8196C1.91436 18.0691 2.92861 17.6453 3.98771 17.641H10.3713C10.8938 17.6437 11.4106 17.7494 11.8921 17.9522C12.3736 18.1549 12.8104 18.4507 13.1774 18.8225C13.9224 19.5679 14.3465 20.5749 14.359 21.6287ZM31.9999 21.6451V28.0123C32.0025 28.5365 31.9008 29.056 31.7008 29.5405C31.5008 30.0251 31.2064 30.4651 30.8348 30.8348C30.0818 31.5763 29.069 31.9944 28.0123 32H21.6287C20.5712 31.9979 19.5572 31.5793 18.8061 30.8348C18.4345 30.4651 18.1401 30.0252 17.94 29.5406C17.74 29.056 17.6384 28.5365 17.641 28.0123V21.6451C17.6495 20.5886 18.0719 19.5776 18.8174 18.829C19.5629 18.0804 20.5723 17.6539 21.6287 17.641H28.0123C29.0724 17.6457 30.0875 18.0706 30.8348 18.8225C31.2066 19.1922 31.5011 19.6321 31.7012 20.1167C31.9012 20.6013 32.0028 21.1208 31.9999 21.6451Z" fill="#EEEEEE"/>
</svg>
