<svg width="10" height="10" viewBox="0 0 10 10" fill="none" xmlns="http://www.w3.org/2000/svg">
<path fill-rule="evenodd" clip-rule="evenodd" d="M3.92465 1.875V0.9375H6.85577V1.875H3.92465ZM2.94761 1.875V0.625C2.94761 0.45924 3.01624 0.300269 3.13839 0.183058C3.26054 0.065848 3.42622 0 3.59897 0L7.18145 0C7.35421 0 7.51988 0.065848 7.64204 0.183058C7.76419 0.300269 7.83281 0.45924 7.83281 0.625V1.875H9.46122C9.59078 1.875 9.71504 1.92439 9.80665 2.01229C9.89827 2.1002 9.94974 2.21943 9.94974 2.34375C9.94974 2.46807 9.89827 2.5873 9.80665 2.67521C9.71504 2.76311 9.59078 2.8125 9.46122 2.8125H9.22347L8.73951 8.84562C8.7144 9.15965 8.56667 9.45301 8.32587 9.66704C8.08506 9.88106 7.76893 9.99998 7.44069 10H3.33973C3.01149 9.99998 2.69536 9.88106 2.45456 9.66704C2.21375 9.45301 2.06603 9.15965 2.04092 8.84562L1.55696 2.8125H1.31921C1.18965 2.8125 1.06539 2.76311 0.973773 2.67521C0.882157 2.5873 0.830688 2.46807 0.830688 2.34375C0.830688 2.21943 0.882157 2.1002 0.973773 2.01229C1.06539 1.92439 1.18965 1.875 1.31921 1.875H2.94761ZM2.53725 2.8125H8.24317L7.76507 8.77375C7.75884 8.85223 7.72197 8.92557 7.66183 8.9791C7.6017 9.03263 7.52272 9.06241 7.44069 9.0625H3.33973C3.2577 9.06241 3.17873 9.03263 3.11859 8.9791C3.05845 8.92557 3.02159 8.85223 3.01535 8.77375L2.53725 2.8125Z" fill="#FDF6FD"/>
</svg>
