<svg width="56" height="53" viewBox="0 0 56 53" fill="none" xmlns="http://www.w3.org/2000/svg">
<path d="M20.2 2H4.6C3.91044 2 3.24912 2.25542 2.76152 2.71007C2.27393 3.16472 2 3.78135 2 4.42432V18.9703C2 19.6132 2.27393 20.2299 2.76152 20.6845C3.24912 21.1392 3.91044 21.3946 4.6 21.3946H20.2C20.8896 21.3946 21.5509 21.1392 22.0385 20.6845C22.5261 20.2299 22.8 19.6132 22.8 18.9703V4.42432C22.8 3.78135 22.5261 3.16472 22.0385 2.71007C21.5509 2.25542 20.8896 2 20.2 2ZM20.2 31.0919H4.6C3.91044 31.0919 3.24912 31.3473 2.76152 31.802C2.27393 32.2566 2 32.8732 2 33.5162V48.0622C2 48.7051 2.27393 49.3218 2.76152 49.7764C3.24912 50.2311 3.91044 50.4865 4.6 50.4865H20.2C20.8896 50.4865 21.5509 50.2311 22.0385 49.7764C22.5261 49.3218 22.8 48.7051 22.8 48.0622V33.5162C22.8 32.8732 22.5261 32.2566 22.0385 31.802C21.5509 31.3473 20.8896 31.0919 20.2 31.0919ZM51.4 2H35.8C35.1104 2 34.4491 2.25542 33.9615 2.71007C33.4739 3.16472 33.2 3.78135 33.2 4.42432V18.9703C33.2 19.6132 33.4739 20.2299 33.9615 20.6845C34.4491 21.1392 35.1104 21.3946 35.8 21.3946H51.4C52.0896 21.3946 52.7509 21.1392 53.2385 20.6845C53.7261 20.2299 54 19.6132 54 18.9703V4.42432C54 3.78135 53.7261 3.16472 53.2385 2.71007C52.7509 2.25542 52.0896 2 51.4 2Z" fill="#658864" stroke="#658864" stroke-width="4" stroke-linejoin="round"/>
<path d="M33.2 31.0919H54H33.2ZM43.6 40.7892H54H43.6ZM33.2 50.4865H54H33.2Z" fill="#658864"/>
<path d="M33.2 31.0919H54M43.6 40.7892H54M33.2 50.4865H54" stroke="#658864" stroke-width="4" stroke-linecap="round" stroke-linejoin="round"/>
</svg>
