<svg width="33" height="29" viewBox="0 0 33 29" fill="none" xmlns="http://www.w3.org/2000/svg">
<path d="M30.25 0H2.75C2.02065 0 1.32118 0.254612 0.805456 0.707825C0.289731 1.16104 0 1.77573 0 2.41667V26.5833C0 27.2243 0.289731 27.839 0.805456 28.2922C1.32118 28.7454 2.02065 29 2.75 29H30.25C30.9793 29 31.6788 28.7454 32.1945 28.2922C32.7103 27.839 33 27.2243 33 26.5833V2.41667C33 1.77573 32.7103 1.16104 32.1945 0.707825C31.6788 0.254612 30.9793 0 30.25 0ZM5.5 6.04167H27.5C27.8647 6.04167 28.2144 6.16897 28.4723 6.39558C28.7301 6.62219 28.875 6.92953 28.875 7.25C28.875 7.57047 28.7301 7.87781 28.4723 8.10442C28.2144 8.33103 27.8647 8.45833 27.5 8.45833H5.5C5.13533 8.45833 4.78559 8.33103 4.52773 8.10442C4.26987 7.87781 4.125 7.57047 4.125 7.25C4.125 6.92953 4.26987 6.62219 4.52773 6.39558C4.78559 6.16897 5.13533 6.04167 5.5 6.04167ZM5.5 13.2917H11C11.3647 13.2917 11.7144 13.419 11.9723 13.6456C12.2301 13.8722 12.375 14.1795 12.375 14.5C12.375 14.8205 12.2301 15.1278 11.9723 15.3544C11.7144 15.581 11.3647 15.7083 11 15.7083H5.5C5.13533 15.7083 4.78559 15.581 4.52773 15.3544C4.26987 15.1278 4.125 14.8205 4.125 14.5C4.125 14.1795 4.26987 13.8722 4.52773 13.6456C4.78559 13.419 5.13533 13.2917 5.5 13.2917ZM12.375 22.9583H5.5C5.13533 22.9583 4.78559 22.831 4.52773 22.6044C4.26987 22.3778 4.125 22.0705 4.125 21.75C4.125 21.4295 4.26987 21.1222 4.52773 20.8956C4.78559 20.669 5.13533 20.5417 5.5 20.5417H12.375C12.7397 20.5417 13.0894 20.669 13.3473 20.8956C13.6051 21.1222 13.75 21.4295 13.75 21.75C13.75 22.0705 13.6051 22.3778 13.3473 22.6044C13.0894 22.831 12.7397 22.9583 12.375 22.9583ZM28.6258 16.8094L25.5561 19.0313L26.4911 22.3542C26.5237 22.4696 26.5168 22.591 26.4713 22.7031C26.4257 22.8151 26.3435 22.9129 26.235 22.984C26.116 23.0611 25.9721 23.1029 25.8242 23.1033C25.7033 23.1027 25.5847 23.074 25.4805 23.0203L22 21.2274L18.5247 23.0263C18.408 23.0866 18.2737 23.1153 18.1386 23.1087C18.0035 23.1022 17.8735 23.0608 17.7651 22.9897C17.6566 22.9186 17.5745 22.8209 17.5289 22.7089C17.4833 22.597 17.4764 22.4756 17.5089 22.3602L18.4439 19.0373L15.3742 16.8094C15.2687 16.7327 15.1917 16.63 15.153 16.5146C15.1143 16.3991 15.1157 16.2762 15.1571 16.1614C15.1984 16.0467 15.2778 15.9454 15.3851 15.8706C15.4924 15.7958 15.6227 15.7509 15.7592 15.7416L19.812 15.4667L21.3692 12.2948C21.4225 12.1867 21.5107 12.0947 21.6227 12.03C21.7348 11.9654 21.8659 11.9309 22 11.9309C22.1341 11.9309 22.2652 11.9654 22.3773 12.03C22.4893 12.0947 22.5775 12.1867 22.6308 12.2948L24.188 15.4667L28.2408 15.7416C28.3773 15.7509 28.5076 15.7958 28.6149 15.8706C28.7222 15.9454 28.8016 16.0467 28.8429 16.1614C28.8843 16.2762 28.8857 16.3991 28.847 16.5146C28.8084 16.63 28.7313 16.7327 28.6258 16.8094Z" fill="#FDF6FD"/>
</svg>
