<svg width="20" height="18" viewBox="0 0 20 18" fill="none" xmlns="http://www.w3.org/2000/svg">
<path d="M18.3333 0H1.66667C1.22464 0 0.800716 0.158035 0.488155 0.43934C0.175595 0.720644 0 1.10218 0 1.5V16.5C0 16.8978 0.175595 17.2794 0.488155 17.5607C0.800716 17.842 1.22464 18 1.66667 18H18.3333C18.7754 18 19.1993 17.842 19.5118 17.5607C19.8244 17.2794 20 16.8978 20 16.5V1.5C20 1.10218 19.8244 0.720644 19.5118 0.43934C19.1993 0.158035 18.7754 0 18.3333 0ZM3.33333 3.75H16.6667C16.8877 3.75 17.0996 3.82902 17.2559 3.96967C17.4122 4.11032 17.5 4.30109 17.5 4.5C17.5 4.69891 17.4122 4.88968 17.2559 5.03033C17.0996 5.17098 16.8877 5.25 16.6667 5.25H3.33333C3.11232 5.25 2.90036 5.17098 2.74408 5.03033C2.5878 4.88968 2.5 4.69891 2.5 4.5C2.5 4.30109 2.5878 4.11032 2.74408 3.96967C2.90036 3.82902 3.11232 3.75 3.33333 3.75ZM3.33333 8.25H6.66667C6.88768 8.25 7.09964 8.32902 7.25592 8.46967C7.4122 8.61032 7.5 8.80109 7.5 9C7.5 9.19891 7.4122 9.38968 7.25592 9.53033C7.09964 9.67098 6.88768 9.75 6.66667 9.75H3.33333C3.11232 9.75 2.90036 9.67098 2.74408 9.53033C2.5878 9.38968 2.5 9.19891 2.5 9C2.5 8.80109 2.5878 8.61032 2.74408 8.46967C2.90036 8.32902 3.11232 8.25 3.33333 8.25ZM7.5 14.25H3.33333C3.11232 14.25 2.90036 14.171 2.74408 14.0303C2.5878 13.8897 2.5 13.6989 2.5 13.5C2.5 13.3011 2.5878 13.1103 2.74408 12.9697C2.90036 12.829 3.11232 12.75 3.33333 12.75H7.5C7.72101 12.75 7.93297 12.829 8.08926 12.9697C8.24554 13.1103 8.33333 13.3011 8.33333 13.5C8.33333 13.6989 8.24554 13.8897 8.08926 14.0303C7.93297 14.171 7.72101 14.25 7.5 14.25ZM17.349 10.4334L15.4885 11.8125L16.0552 13.875C16.075 13.9467 16.0708 14.022 16.0432 14.0916C16.0156 14.1611 15.9658 14.2218 15.9 14.2659C15.8279 14.3138 15.7407 14.3397 15.651 14.34C15.5778 14.3396 15.5059 14.3218 15.4427 14.2884L13.3333 13.1756L11.2271 14.2922C11.1564 14.3296 11.075 14.3474 10.9931 14.3434C10.9112 14.3393 10.8324 14.3136 10.7667 14.2695C10.701 14.2253 10.6512 14.1647 10.6236 14.0952C10.5959 14.0257 10.5917 13.9504 10.6115 13.8787L11.1781 11.8162L9.31771 10.4334C9.25375 10.3858 9.20706 10.3221 9.18361 10.2504C9.16016 10.1788 9.16103 10.1024 9.1861 10.0312C9.21117 9.96002 9.2593 9.89717 9.32432 9.85074C9.38934 9.80431 9.46829 9.77641 9.55104 9.77063L12.0073 9.6L12.951 7.63125C12.9834 7.56416 13.0368 7.50703 13.1047 7.46691C13.1726 7.42678 13.2521 7.4054 13.3333 7.4054C13.4146 7.4054 13.4941 7.42678 13.562 7.46691C13.6299 7.50703 13.6833 7.56416 13.7156 7.63125L14.6594 9.6L17.1156 9.77063C17.1984 9.77641 17.2773 9.80431 17.3423 9.85074C17.4074 9.89717 17.4555 9.96002 17.4806 10.0312C17.5056 10.1024 17.5065 10.1788 17.4831 10.2504C17.4596 10.3221 17.4129 10.3858 17.349 10.4334Z" fill="#FDF6FD"/>
</svg>
