<svg width="20" height="22" viewBox="0 0 20 22" fill="none" xmlns="http://www.w3.org/2000/svg">
<path d="M13 11H4M4 11L6 13M4 11L6 9" stroke="#FDF6FD" stroke-width="1.5" stroke-linecap="round" stroke-linejoin="round"/>
<path d="M10 20.983C8.447 20.936 7.52 20.763 6.879 20.121C6.11 19.353 6.014 18.175 6.002 16M14 20.998C16.175 20.986 17.353 20.89 18.121 20.121C19 19.243 19 17.828 19 15V7C19 4.172 19 2.757 18.121 1.879C17.243 1 15.828 1 13 1H12C9.172 1 7.757 1 6.879 1.879C6.11 2.647 6.014 3.825 6.002 6M1 8.5V13.5C1 15.857 1 17.035 1.732 17.768C2.464 18.5 3.643 18.5 6 18.5M1.732 4.232C2.464 3.5 3.643 3.5 6 3.5" stroke="#FDF6FD" stroke-width="1.5" stroke-linecap="round"/>
</svg>
