<svg width="21" height="21" viewBox="0 0 21 21" fill="none" xmlns="http://www.w3.org/2000/svg">
<path d="M10.5691 10.2946C11.9569 10.2946 13.2878 9.82981 14.2692 9.00241C15.2505 8.175 15.8018 7.05279 15.8018 5.88266C15.8018 4.71252 15.2505 3.59032 14.2692 2.76291C13.2878 1.9355 11.9569 1.47066 10.5691 1.47066C9.18127 1.47066 7.8503 1.9355 6.86898 2.76291C5.88765 3.59032 5.33635 4.71252 5.33635 5.88266C5.33635 7.05279 5.88765 8.175 6.86898 9.00241C7.8503 9.82981 9.18127 10.2946 10.5691 10.2946ZM10.5691 11.7653C8.71867 11.7653 6.94405 11.1455 5.63561 10.0423C4.32717 8.93911 3.5921 7.44283 3.5921 5.88266C3.5921 4.32248 4.32717 2.8262 5.63561 1.72299C6.94405 0.619778 8.71867 0 10.5691 0C12.4195 0 14.1941 0.619778 15.5025 1.72299C16.811 2.8262 17.546 4.32248 17.546 5.88266C17.546 7.44283 16.811 8.93911 15.5025 10.0423C14.1941 11.1455 12.4195 11.7653 10.5691 11.7653Z" fill="#FDF6FD"/>
<path d="M10.5 10.3675C10.7198 10.3675 10.9307 10.4448 11.0862 10.5824C11.2416 10.72 11.3289 10.9067 11.3289 11.1013V16.9723C11.3289 17.167 11.2416 17.3536 11.0862 17.4913C10.9307 17.6289 10.7198 17.7062 10.5 17.7062C10.2801 17.7062 10.0693 17.6289 9.91384 17.4913C9.75839 17.3536 9.67105 17.167 9.67105 16.9723V11.1013C9.67105 10.9067 9.75839 10.72 9.91384 10.5824C10.0693 10.4448 10.2801 10.3675 10.5 10.3675Z" fill="#FDF6FD"/>
<path d="M7 13.5126V14.9973C3.87625 15.4156 1.75 16.3196 1.75 16.9617C1.75 17.8232 5.5755 19.1557 10.5 19.1557C15.4245 19.1557 19.25 17.8232 19.25 16.9617C19.25 16.3181 17.1238 15.4156 14 14.9973V13.5126C18.0775 14.0143 21 15.3703 21 16.9617C21 18.9802 16.2995 20.6184 10.5 20.6184C4.7005 20.6184 0 18.9802 0 16.9617C0 15.3688 2.9225 14.0143 7 13.5126Z" fill="#FDF6FD"/>
</svg>
