<svg width="21" height="19" viewBox="0 0 21 19" fill="none" xmlns="http://www.w3.org/2000/svg">
<path d="M10.5 0C11.8924 0 13.2277 0.500445 14.2123 1.39124C15.1969 2.28204 15.75 3.49022 15.75 4.75C15.75 6.00978 15.1969 7.21796 14.2123 8.10876C13.2277 8.99956 11.8924 9.5 10.5 9.5C9.10761 9.5 7.77225 8.99956 6.78769 8.10876C5.80312 7.21796 5.25 6.00978 5.25 4.75C5.25 3.49022 5.80312 2.28204 6.78769 1.39124C7.77225 0.500445 9.10761 0 10.5 0ZM10.5 2.375C9.80381 2.375 9.13613 2.62522 8.64385 3.07062C8.15156 3.51602 7.875 4.12011 7.875 4.75C7.875 5.37989 8.15156 5.98398 8.64385 6.42938C9.13613 6.87478 9.80381 7.125 10.5 7.125C11.1962 7.125 11.8639 6.87478 12.3562 6.42938C12.8484 5.98398 13.125 5.37989 13.125 4.75C13.125 4.12011 12.8484 3.51602 12.3562 3.07062C11.8639 2.62522 11.1962 2.375 10.5 2.375ZM10.5 10.6875C14.0044 10.6875 21 12.2669 21 15.4375V19H0V15.4375C0 12.2669 6.99563 10.6875 10.5 10.6875ZM10.5 12.9437C6.60187 12.9437 2.49375 14.6775 2.49375 15.4375V16.7437H18.5063V15.4375C18.5063 14.6775 14.3981 12.9437 10.5 12.9437Z" fill="#FDF6FD"/>
</svg>
