<svg width="22" height="22" viewBox="0 0 22 22" fill="none" xmlns="http://www.w3.org/2000/svg">
<path d="M16.3097 2.41563C16.5233 2.19445 16.7789 2.01803 17.0615 1.89666C17.344 1.7753 17.648 1.71141 17.9555 1.70874C18.263 1.70607 18.568 1.76466 18.8526 1.8811C19.1373 1.99754 19.3959 2.16949 19.6133 2.38692C19.8308 2.60436 20.0028 2.86292 20.1192 3.14751C20.2357 3.43211 20.2943 3.73705 20.2916 4.04454C20.2889 4.35202 20.225 4.65589 20.1037 4.93843C19.9823 5.22096 19.8058 5.47649 19.5846 5.69011L12.5669 12.7069C12.3845 12.8892 12.1566 13.0196 11.9068 13.0843L7.86759 14.1311L8.91446 10.0912C8.97922 9.84151 9.10956 9.61365 9.29198 9.43122L16.3097 2.41563ZM20.8133 1.18712C20.4369 0.810758 19.9901 0.51221 19.4983 0.308523C19.0065 0.104837 18.4795 0 17.9472 0C17.4149 0 16.8878 0.104837 16.396 0.308523C15.9042 0.51221 15.4574 0.810758 15.081 1.18712L8.0633 8.20387C7.66207 8.60523 7.37541 9.10652 7.23299 9.65585L5.81555 15.1245C5.77766 15.2709 5.77864 15.4246 5.8184 15.5704C5.85816 15.7163 5.93531 15.8493 6.04223 15.9562C6.14914 16.0631 6.28212 16.1402 6.428 16.18C6.57388 16.2197 6.72761 16.2207 6.87399 16.1828L12.3434 14.7656C12.8929 14.6228 13.3943 14.3358 13.7956 13.9342L20.8133 6.91746C21.5731 6.15749 22 5.12689 22 4.05229C22 2.97769 21.5731 1.94709 20.8133 1.18712ZM10.4199 1.15817C11.3533 1.15817 12.2589 1.28091 13.1193 1.51132L11.6486 2.98183C9.84402 2.72408 8.00409 3.04057 6.38941 3.88647C4.77474 4.73238 3.46719 6.06481 2.65197 7.69502C1.83676 9.32524 1.55521 11.1706 1.8472 12.9697C2.1392 14.7688 2.98994 16.4304 4.27891 17.7192C5.56789 19.008 7.22975 19.8587 9.0291 20.1506C10.8284 20.4426 12.6741 20.1611 14.3045 19.346C15.9349 18.5308 17.2676 17.2235 18.1136 15.609C18.9596 13.9946 19.2761 12.1549 19.0183 10.3506L20.489 8.88007C21.0531 10.9831 20.9441 13.21 20.1774 15.248C19.4107 17.2859 18.0248 19.0326 16.2144 20.2426C14.404 21.4526 12.26 22.0653 10.0835 21.9945C7.90696 21.9237 5.8073 21.173 4.07936 19.8479C2.35143 18.5228 1.08203 16.6897 0.449438 14.6063C-0.183154 12.5228 -0.147159 10.2935 0.552369 8.23158C1.2519 6.16962 2.57982 4.37853 4.34963 3.10986C6.11944 1.8412 8.24225 1.15868 10.4199 1.15817Z" fill="#FDF6FD"/>
</svg>
