<svg width="22" height="21" viewBox="0 0 22 21" fill="none" xmlns="http://www.w3.org/2000/svg">
<path d="M21.4213 3.40147L11.2675 0.0430915C11.0938 -0.0143638 10.906 -0.0143638 10.7323 0.0430915L0.578553 3.40147C0.410069 3.4572 0.263529 3.56412 0.159693 3.70709C0.0558559 3.85005 -1.316e-05 4.02181 2.32517e-09 4.19804V12.594C2.32517e-09 12.8167 0.0891473 13.0302 0.247831 13.1877C0.406514 13.3451 0.621735 13.4336 0.846147 13.4336C1.07056 13.4336 1.28578 13.3451 1.44446 13.1877C1.60315 13.0302 1.69229 12.8167 1.69229 12.594V5.36298L5.24505 6.53736C4.30113 8.05052 4.00097 9.87353 4.41047 11.6061C4.81997 13.3387 5.90567 14.8392 7.42917 15.7782C5.52534 16.5191 3.87958 17.8593 2.67594 19.6917C2.61334 19.784 2.56986 19.8878 2.54802 19.9969C2.52619 20.1061 2.52643 20.2184 2.54874 20.3274C2.57105 20.4365 2.61499 20.54 2.67798 20.6321C2.74098 20.7241 2.82179 20.8029 2.91572 20.8636C3.00964 20.9244 3.11481 20.9661 3.2251 20.9862C3.33539 21.0063 3.44861 21.0044 3.55817 20.9807C3.66773 20.957 3.77146 20.912 3.86331 20.8482C3.95517 20.7843 4.03332 20.703 4.09323 20.609C5.68716 18.1825 8.20445 16.792 10.9999 16.792C13.7954 16.792 16.3126 18.1825 17.9066 20.609C18.0307 20.792 18.2224 20.9192 18.4403 20.9631C18.6581 21.007 18.8847 20.964 19.0709 20.8435C19.2571 20.723 19.388 20.5346 19.4353 20.3191C19.4827 20.1035 19.4426 19.8782 19.3239 19.6917C18.1202 17.8593 16.4681 16.5191 14.5706 15.7782C16.0927 14.8392 17.1773 13.3397 17.5868 11.6084C17.9962 9.87708 17.697 8.05533 16.7548 6.54261L21.4213 4.99985C21.5898 4.94415 21.7364 4.83724 21.8402 4.69428C21.9441 4.55131 22 4.37953 22 4.20328C22 4.02704 21.9441 3.85526 21.8402 3.71229C21.7364 3.56932 21.5898 3.46242 21.4213 3.40672V3.40147ZM16.0768 10.0752C16.077 10.8716 15.8869 11.6567 15.5222 12.3661C15.1574 13.0756 14.6283 13.689 13.9783 14.1563C13.3283 14.6235 12.5759 14.9311 11.7829 15.0539C10.9898 15.1768 10.1788 15.1113 9.41618 14.8628C8.6536 14.6144 7.96126 14.1901 7.39595 13.6247C6.83063 13.0594 6.40847 12.3691 6.16408 11.6105C5.9197 10.8519 5.86006 10.0466 5.99007 9.26069C6.12007 8.47479 6.43601 7.73067 6.91196 7.08939L10.7323 8.34879C10.906 8.40624 11.0938 8.40624 11.2675 8.34879L15.0879 7.08939C15.7306 7.95421 16.0772 9.00064 16.0768 10.0752ZM10.9999 6.67169L3.52209 4.19804L10.9999 1.72438L18.4777 4.19804L10.9999 6.67169Z" fill="#34C759"/>
</svg>
